<svg width="159" height="56" viewBox="0 0 159 56" fill="none" xmlns="http://www.w3.org/2000/svg">
<g clip-path="url(#clip0_139_2035)">
<rect width="135" height="56" transform="translate(24)" fill="#F9DC38"/>
<path d="M57.99 18C52.47 18 48 22.48 48 28C48 33.52 52.47 38 57.99 38C63.52 38 68 33.52 68 28C68 22.48 63.52 18 57.99 18ZM62.23 34L58 31.45L53.77 34L54.89 29.19L51.16 25.96L56.08 25.54L58 21L59.92 25.53L64.84 25.95L61.11 29.18L62.23 34Z" fill="black"/>
<path d="M82.7749 32L81.0589 29.54C80.9869 29.548 80.8789 29.552 80.7349 29.552H78.8389V32H77.2789V23.6H80.7349C81.4629 23.6 82.0949 23.72 82.6309 23.96C83.1749 24.2 83.5909 24.544 83.8789 24.992C84.1669 25.44 84.3109 25.972 84.3109 26.588C84.3109 27.22 84.1549 27.764 83.8429 28.22C83.5389 28.676 83.0989 29.016 82.5229 29.24L84.4549 32H82.7749ZM82.7389 26.588C82.7389 26.052 82.5629 25.64 82.2109 25.352C81.8589 25.064 81.3429 24.92 80.6629 24.92H78.8389V28.268H80.6629C81.3429 28.268 81.8589 28.124 82.2109 27.836C82.5629 27.54 82.7389 27.124 82.7389 26.588ZM91.4563 28.832C91.4563 28.936 91.4483 29.084 91.4323 29.276H86.4043C86.4923 29.748 86.7203 30.124 87.0883 30.404C87.4643 30.676 87.9283 30.812 88.4803 30.812C89.1843 30.812 89.7643 30.58 90.2203 30.116L91.0243 31.04C90.7363 31.384 90.3723 31.644 89.9323 31.82C89.4923 31.996 88.9963 32.084 88.4443 32.084C87.7403 32.084 87.1203 31.944 86.5843 31.664C86.0483 31.384 85.6323 30.996 85.3363 30.5C85.0483 29.996 84.9043 29.428 84.9043 28.796C84.9043 28.172 85.0443 27.612 85.3243 27.116C85.6123 26.612 86.0083 26.22 86.5123 25.94C87.0163 25.66 87.5843 25.52 88.2163 25.52C88.8403 25.52 89.3963 25.66 89.8843 25.94C90.3803 26.212 90.7643 26.6 91.0363 27.104C91.3163 27.6 91.4563 28.176 91.4563 28.832ZM88.2163 26.72C87.7363 26.72 87.3283 26.864 86.9923 27.152C86.6643 27.432 86.4643 27.808 86.3923 28.28H90.0283C89.9643 27.816 89.7683 27.44 89.4403 27.152C89.1123 26.864 88.7043 26.72 88.2163 26.72ZM102.296 25.592L99.9319 32H98.4919L96.8359 27.584L95.1559 32H93.7159L91.3639 25.592H92.7799L94.4719 30.32L96.2359 25.592H97.4959L99.2239 30.344L100.964 25.592H102.296ZM105.096 25.52C106.04 25.52 106.76 25.748 107.256 26.204C107.76 26.652 108.012 27.332 108.012 28.244V32H106.596V31.22C106.412 31.5 106.148 31.716 105.804 31.868C105.468 32.012 105.06 32.084 104.58 32.084C104.1 32.084 103.68 32.004 103.32 31.844C102.96 31.676 102.68 31.448 102.48 31.16C102.288 30.864 102.192 30.532 102.192 30.164C102.192 29.588 102.404 29.128 102.828 28.784C103.26 28.432 103.936 28.256 104.856 28.256H106.512V28.16C106.512 27.712 106.376 27.368 106.104 27.128C105.84 26.888 105.444 26.768 104.916 26.768C104.556 26.768 104.2 26.824 103.848 26.936C103.504 27.048 103.212 27.204 102.972 27.404L102.384 26.312C102.72 26.056 103.124 25.86 103.596 25.724C104.068 25.588 104.568 25.52 105.096 25.52ZM104.892 30.992C105.268 30.992 105.6 30.908 105.888 30.74C106.184 30.564 106.392 30.316 106.512 29.996V29.252H104.964C104.1 29.252 103.668 29.536 103.668 30.104C103.668 30.376 103.776 30.592 103.992 30.752C104.208 30.912 104.508 30.992 104.892 30.992ZM110.885 26.528C111.317 25.856 112.077 25.52 113.165 25.52V26.948C113.037 26.924 112.921 26.912 112.817 26.912C112.233 26.912 111.777 27.084 111.449 27.428C111.121 27.764 110.957 28.252 110.957 28.892V32H109.457V25.592H110.885V26.528ZM120.175 23.096V32H118.735V31.172C118.487 31.476 118.179 31.704 117.811 31.856C117.451 32.008 117.051 32.084 116.611 32.084C115.995 32.084 115.439 31.948 114.943 31.676C114.455 31.404 114.071 31.02 113.791 30.524C113.511 30.02 113.371 29.444 113.371 28.796C113.371 28.148 113.511 27.576 113.791 27.08C114.071 26.584 114.455 26.2 114.943 25.928C115.439 25.656 115.995 25.52 116.611 25.52C117.035 25.52 117.423 25.592 117.775 25.736C118.127 25.88 118.427 26.096 118.675 26.384V23.096H120.175ZM116.791 30.8C117.151 30.8 117.475 30.72 117.763 30.56C118.051 30.392 118.279 30.156 118.447 29.852C118.615 29.548 118.699 29.196 118.699 28.796C118.699 28.396 118.615 28.044 118.447 27.74C118.279 27.436 118.051 27.204 117.763 27.044C117.475 26.876 117.151 26.792 116.791 26.792C116.431 26.792 116.107 26.876 115.819 27.044C115.531 27.204 115.303 27.436 115.135 27.74C114.967 28.044 114.883 28.396 114.883 28.796C114.883 29.196 114.967 29.548 115.135 29.852C115.303 30.156 115.531 30.392 115.819 30.56C116.107 30.72 116.431 30.8 116.791 30.8ZM123.637 32.084C123.117 32.084 122.609 32.016 122.113 31.88C121.617 31.744 121.221 31.572 120.925 31.364L121.501 30.224C121.789 30.416 122.133 30.572 122.533 30.692C122.941 30.804 123.341 30.86 123.733 30.86C124.629 30.86 125.077 30.624 125.077 30.152C125.077 29.928 124.961 29.772 124.729 29.684C124.505 29.596 124.141 29.512 123.637 29.432C123.109 29.352 122.677 29.26 122.341 29.156C122.013 29.052 121.725 28.872 121.477 28.616C121.237 28.352 121.117 27.988 121.117 27.524C121.117 26.916 121.369 26.432 121.873 26.072C122.385 25.704 123.073 25.52 123.937 25.52C124.377 25.52 124.817 25.572 125.257 25.676C125.697 25.772 126.057 25.904 126.337 26.072L125.761 27.212C125.217 26.892 124.605 26.732 123.925 26.732C123.485 26.732 123.149 26.8 122.917 26.936C122.693 27.064 122.581 27.236 122.581 27.452C122.581 27.692 122.701 27.864 122.941 27.968C123.189 28.064 123.569 28.156 124.081 28.244C124.593 28.324 125.013 28.416 125.341 28.52C125.669 28.624 125.949 28.8 126.181 29.048C126.421 29.296 126.541 29.648 126.541 30.104C126.541 30.704 126.281 31.184 125.761 31.544C125.241 31.904 124.533 32.084 123.637 32.084Z" fill="#111112"/>
<path d="M32 0C32 2.12173 31.1571 4.15656 29.6569 5.65685C28.1566 7.15714 26.1217 8 24 8L24 0H32Z" fill="white"/>
<path d="M24 48C25.0506 48 26.0909 48.2069 27.0615 48.609C28.0321 49.011 28.914 49.6003 29.6569 50.3431C30.3997 51.086 30.989 51.9679 31.391 52.9385C31.7931 53.9091 32 54.9494 32 56L24 56V48Z" fill="white"/>
<line x1="24" x2="24" y2="56" stroke="white" stroke-width="2" stroke-dasharray="8 8"/>
</g>
<g clip-path="url(#clip1_139_2035)">
<rect width="24" height="56" fill="#F9DC38"/>
<path d="M24 8C21.8783 8 19.8434 7.15715 18.3431 5.65685C16.8429 4.15656 16 2.12173 16 9.53674e-07L24 0L24 8Z" fill="white"/>
<path d="M16 56C16 53.8783 16.8429 51.8434 18.3431 50.3431C19.8434 48.8429 21.8783 48 24 48V56L16 56Z" fill="white"/>
<line x1="24" x2="24" y2="56" stroke="white" stroke-width="2" stroke-dasharray="8 8"/>
</g>
<defs>
<clipPath id="clip0_139_2035">
<rect width="135" height="56" fill="white" transform="translate(24)"/>
</clipPath>
<clipPath id="clip1_139_2035">
<rect width="24" height="56" fill="white"/>
</clipPath>
</defs>
</svg>
