<svg width="18" height="18" viewBox="0 0 18 18" fill="none" xmlns="http://www.w3.org/2000/svg">
<path fill-rule="evenodd" clip-rule="evenodd" d="M5.48232 0.518109C6.39255 0.476686 6.6834 0.466553 9.00093 0.466553H8.99827C11.3165 0.466553 11.6063 0.476686 12.5165 0.518109C13.425 0.55971 14.0454 0.703533 14.5894 0.914557C15.1512 1.13234 15.6259 1.4239 16.1006 1.89857C16.5752 2.37288 16.8668 2.84898 17.0855 3.41023C17.2952 3.95281 17.4392 4.57291 17.4819 5.48136C17.5228 6.39159 17.5335 6.68244 17.5335 8.99998C17.5335 11.3175 17.5228 11.6076 17.4819 12.5179C17.4392 13.426 17.2952 14.0462 17.0855 14.589C16.8668 15.1501 16.5752 15.6262 16.1006 16.1005C15.6264 16.5752 15.151 16.8674 14.59 17.0854C14.047 17.2964 13.4262 17.4402 12.5178 17.4818C11.6075 17.5233 11.3176 17.5334 8.99986 17.5334C6.68251 17.5334 6.39184 17.5233 5.48161 17.4818C4.57333 17.4402 3.95306 17.2964 3.41012 17.0854C2.84922 16.8674 2.37313 16.5752 1.89899 16.1005C1.4245 15.6262 1.13294 15.1501 0.914801 14.5888C0.703955 14.0462 0.560132 13.4262 0.518353 12.5177C0.477108 11.6075 0.466797 11.3175 0.466797 8.99998C0.466797 6.68244 0.477464 6.39142 0.518175 5.48118C0.559064 4.57308 0.703066 3.95281 0.914624 3.41005C1.13329 2.84898 1.42485 2.37288 1.89952 1.89857C2.37384 1.42407 2.84993 1.13252 3.41118 0.914557C3.95377 0.703533 4.57386 0.55971 5.48232 0.518109ZM8.23541 2.00435C8.38405 2.00411 8.54396 2.00419 8.71652 2.00426L9.00093 2.00435C11.2794 2.00435 11.5494 2.01252 12.4491 2.05341C13.2812 2.09146 13.7327 2.23048 14.0335 2.34728C14.4317 2.50195 14.7157 2.68684 15.0142 2.98551C15.3128 3.28418 15.4977 3.56863 15.6527 3.96686C15.7695 4.2673 15.9087 4.71886 15.9466 5.55087C15.9875 6.45044 15.9964 6.72066 15.9964 8.99802C15.9964 11.2754 15.9875 11.5456 15.9466 12.4452C15.9086 13.2772 15.7695 13.7287 15.6527 14.0292C15.4981 14.4274 15.3128 14.711 15.0142 15.0095C14.7155 15.3081 14.4319 15.493 14.0335 15.6477C13.7331 15.765 13.2812 15.9037 12.4491 15.9417C11.5496 15.9826 11.2794 15.9915 9.00093 15.9915C6.72233 15.9915 6.45228 15.9826 5.55272 15.9417C4.72071 15.9033 4.26915 15.7643 3.96817 15.6475C3.56994 15.4928 3.28549 15.308 2.98682 15.0093C2.68815 14.7106 2.50326 14.4269 2.34824 14.0285C2.23144 13.728 2.09224 13.2765 2.05437 12.4445C2.01348 11.5449 2.0053 11.2747 2.0053 8.99589C2.0053 6.71711 2.01348 6.4483 2.05437 5.54874C2.09241 4.71673 2.23144 4.26517 2.34824 3.96437C2.50291 3.56614 2.68815 3.28169 2.98682 2.98302C3.28549 2.68435 3.56994 2.49946 3.96817 2.34444C4.26897 2.2271 4.72071 2.08844 5.55272 2.05021C6.33993 2.01466 6.64499 2.00399 8.23541 2.00221V2.00435ZM12.532 4.4449C12.532 3.87939 12.9907 3.42125 13.556 3.42125C14.1213 3.42125 14.58 3.87957 14.58 4.4449C14.58 5.01024 14.1213 5.46892 13.556 5.46892C12.9907 5.46892 12.532 5.01024 12.532 4.4449ZM4.61866 8.99998C4.61866 6.57986 6.58082 4.61771 9.00093 4.61771C11.421 4.61771 13.3825 6.57986 13.3825 8.99998C13.3825 11.4201 11.421 13.3814 9.00093 13.3814C6.58082 13.3814 4.61866 11.4201 4.61866 8.99998ZM11.8454 8.99998C11.8454 7.42894 10.5718 6.1555 9.00093 6.1555C7.42989 6.1555 6.15646 7.42894 6.15646 8.99998C6.15646 10.5708 7.42989 11.8444 9.00093 11.8444C10.5718 11.8444 11.8454 10.5708 11.8454 8.99998Z" fill="#111112"/>
</svg>
