<svg width="18" height="18" viewBox="0 0 18 18" fill="none" xmlns="http://www.w3.org/2000/svg">
<path fill-rule="evenodd" clip-rule="evenodd" d="M14.3634 13.1791C15.511 11.8113 16.202 10.0475 16.202 8.12238C16.202 3.77459 12.6774 0.250001 8.3296 0.25C3.9818 0.25 0.457214 3.77459 0.457214 8.12238C0.457214 12.4702 3.9818 15.9948 8.3296 15.9948C10.0425 15.9948 11.6276 15.4477 12.9198 14.5188L16.151 17.75L17.5426 16.3583L14.3634 13.1791ZM14.2339 8.12238C14.2339 11.3832 11.5904 14.0267 8.3296 14.0267C5.06875 14.0267 2.42531 11.3832 2.42531 8.12238C2.42531 4.86153 5.06875 2.2181 8.3296 2.2181C11.5904 2.2181 14.2339 4.86153 14.2339 8.12238Z" fill="#111112"/>
</svg>
